# Blender 3.6.0
# www.blender.org
mtllib shortshrub.mtl
o shortshrub
v -0.531612 -0.050276 0.549027
v -0.701612 -0.043764 -0.010802
v -0.666689 -0.225152 -0.003501
v -0.499159 -0.225152 0.508847
v 0.449223 -0.225152 0.591107
v 0.644909 -0.238351 -0.086857
v 0.747707 -0.019768 -0.091362
v 0.507593 -0.005891 0.630781
v -0.065678 -0.028360 0.723590
v -0.039417 -0.231142 0.705473
v 0.513151 -0.280960 -0.592194
v -0.007816 -0.225152 -0.657492
v 0.067440 -0.005891 -0.700937
v 0.564911 -0.064566 -0.657851
v -0.427507 -0.139967 -0.534489
v -0.530933 0.020628 -0.542320
v -0.025917 0.638135 0.379295
v -0.018400 0.665343 0.012844
v -0.372749 0.605177 0.005576
v -0.302109 0.541939 0.313366
v -0.021450 0.643256 -0.306380
v -0.283689 0.604761 -0.276427
v 0.350969 0.588007 -0.055527
v 0.295153 0.557846 -0.339302
v 0.207981 0.597350 0.363001
v 0.488125 0.270757 -0.558824
v 0.608204 0.313166 -0.087241
v 0.407324 0.326302 0.551544
v -0.005705 0.342084 0.608794
v -0.394718 0.267369 0.477734
v -0.517992 0.312534 -0.006429
v -0.382992 0.344487 -0.459334
v 0.059332 0.356723 -0.558574
v -0.313599 -0.273409 -0.381794
v -0.487387 -0.335304 0.004016
v -0.365660 -0.335304 0.376282
v -0.031618 -0.339656 0.519148
v 0.323423 -0.335304 0.436051
v 0.465607 -0.344894 -0.056549
v 0.369873 -0.375853 -0.423721
v -0.008657 -0.335304 -0.471167
v -0.152849 -0.413916 -0.166436
v -0.234505 -0.413916 0.014511
v -0.176676 -0.413916 0.188817
v -0.020811 -0.413916 0.256229
v 0.145359 -0.413916 0.217253
v 0.212723 -0.413916 -0.013557
v 0.168171 -0.413916 -0.185925
v -0.009480 -0.413916 -0.208248
vn -0.9280 0.2384 0.2863
vn -0.9812 0.1929 -0.0062
vn -0.9542 -0.2975 -0.0299
vn -0.9543 -0.2975 -0.0300
vn -0.9342 -0.2037 0.2929
vn 0.8920 -0.3512 0.2845
vn 0.9284 -0.3670 0.0581
vn 0.9961 0.0761 0.0456
vn 0.9506 0.0736 0.3016
vn 0.1655 0.1153 0.9795
vn -0.1061 0.1288 0.9860
vn -0.0413 -0.1751 0.9837
vn 0.1655 0.1152 0.9795
vn 0.1932 -0.1475 0.9700
vn 0.0729 -0.2622 -0.9622
vn -0.1114 -0.2069 -0.9720
vn -0.0640 0.1374 -0.9884
vn 0.0729 -0.2623 -0.9622
vn 0.0895 0.0690 -0.9936
vn 0.9581 0.0379 -0.2838
vn 0.9284 -0.3671 0.0581
vn 0.9581 0.0380 -0.2838
vn 0.9031 -0.3589 -0.2358
vn -0.8517 -0.3613 -0.3794
vn -0.9542 -0.2975 -0.0300
vn -0.9360 0.1776 -0.3039
vn -0.2545 0.9551 0.1519
vn -0.2545 0.9551 0.1520
vn -0.3620 -0.1969 0.9111
vn -0.3620 -0.1970 0.9111
vn -0.3684 0.1156 0.9224
vn -0.2440 0.2087 -0.9471
vn -0.1113 -0.2070 -0.9720
vn -0.2788 -0.1488 -0.9488
vn -0.1599 0.9853 -0.0598
vn -0.1599 0.9853 -0.0597
vn 0.2148 0.9710 -0.1051
vn 0.2149 0.9710 -0.1051
vn 0.2000 0.9779 0.0606
vn 0.8526 0.4439 -0.2757
vn 0.8668 0.4973 0.0358
vn 0.8526 0.4439 -0.2756
vn 0.9581 0.0379 -0.2839
vn 0.9961 0.0762 0.0456
vn 0.8669 0.4973 0.0358
vn 0.9506 0.0735 0.3016
vn 0.8390 0.4767 0.2624
vn 0.1449 0.3712 0.9172
vn -0.0848 0.4367 0.8956
vn 0.1450 0.3712 0.9172
vn -0.0847 0.4367 0.8956
vn -0.3576 0.4128 0.8377
vn -0.8606 0.4349 0.2651
vn -0.8884 0.4587 0.0193
vn -0.8606 0.4348 0.2652
vn -0.9812 0.1928 -0.0062
vn -0.8610 0.4539 -0.2293
vn -0.2121 0.4335 -0.8758
vn -0.0520 0.4830 -0.8741
vn 0.0896 0.0690 -0.9936
vn 0.1036 0.4284 -0.8976
vn 0.7072 0.6689 -0.2290
vn 0.7304 0.6808 0.0561
vn 0.7072 0.6690 -0.2289
vn 0.7166 0.6623 0.2190
vn -0.1309 0.6093 0.7820
vn -0.0847 0.4366 0.8956
vn -0.1310 0.6094 0.7820
vn 0.1419 0.6224 0.7697
vn -0.1309 0.6094 0.7820
vn -0.3642 0.5599 0.7442
vn -0.8861 0.4634 0.0089
vn -0.8606 0.4349 0.2652
vn -0.8600 0.4331 0.2699
vn -0.8535 0.4623 -0.2404
vn -0.0656 0.6422 -0.7637
vn -0.2122 0.4335 -0.8758
vn -0.1848 0.6158 -0.7660
vn -0.0656 0.6422 -0.7638
vn 0.1198 0.6641 -0.7380
vn -0.4806 -0.8059 -0.3458
vn -0.5210 -0.8364 0.1704
vn -0.2182 -0.8473 0.4843
vn 0.1282 -0.8547 0.5031
vn 0.5244 -0.8348 0.1676
vn 0.5027 -0.8625 -0.0583
vn -0.0284 -0.8604 -0.5088
vn -0.3083 -0.8183 -0.4851
vn -0.3415 -0.9052 -0.2528
vn -0.2984 -0.9494 0.0981
vn -0.2986 -0.9493 0.0981
vn -0.1241 -0.9551 0.2692
vn -0.1240 -0.9551 0.2692
vn 0.0732 -0.9577 0.2785
vn 0.0732 -0.9576 0.2785
vn 0.2874 -0.9530 0.0959
vn 0.2274 -0.9738 -0.0032
vn -0.0403 -0.9694 -0.2422
vn -0.2261 -0.9120 -0.3423
vn -0.2261 -0.9120 -0.3422
vn -0.0000 -1.0000 -0.0000
vt 0.625000 0.192414
vt 0.500000 0.192414
vt 0.500000 0.125000
vt 0.625000 0.125000
vt 0.625000 0.625000
vt 0.500000 0.625000
vt 0.500000 0.557586
vt 0.692414 0.490172
vt 0.807586 0.259828
vt 0.716293 0.226121
vt 0.750000 0.125000
vt 0.875000 0.125000
vt 0.125000 0.125000
vt 0.250000 0.125000
vt 0.283707 0.226121
vt 0.192414 0.259828
vt 0.307586 0.490172
vt 0.375000 0.625000
vt 0.375000 0.125000
vt 0.375000 0.192414
vt 0.687500 0.312500
vt 0.500000 0.375000
vt 0.500000 0.250000
vt 0.625000 0.250000
vt 0.312500 0.312500
vt 0.375000 0.250000
vt 0.500000 0.500000
vt 0.250000 0.375000
vt 0.750000 0.375000
vt 0.276051 0.427103
vt 0.500000 0.526051
vt 0.723949 0.427103
vt 0.776051 0.322897
vt 0.700526 0.273423
vt 0.625000 0.223949
vt 0.500000 0.223949
vt 0.375000 0.223949
vt 0.299474 0.273423
vt 0.223949 0.322897
vt 0.000000 0.000000
vt 1.000000 0.000000
vt 1.000000 1.000000
vt 0.000000 1.000000
s 0
usemtl Material.002
f 1/1/1 2/2/2 3/3/3
f 1/1/1 3/3/4 4/4/5
f 5/5/6 6/6/7 7/7/8
f 5/5/6 7/7/8 8/8/9
f 8/9/10 9/10/11 10/11/12
f 8/9/13 10/11/12 5/12/14
f 11/13/15 12/14/16 13/15/17
f 11/13/18 13/15/17 14/16/19
f 14/17/20 7/7/8 6/6/21
f 14/17/22 6/6/7 11/18/23
f 15/19/24 3/3/25 2/2/2
f 15/19/24 2/2/2 16/20/26
f 17/21/27 18/22/27 19/23/27
f 17/21/28 19/23/28 20/24/28
f 4/4/29 10/11/12 9/10/11
f 4/4/30 9/10/11 1/1/31
f 16/20/32 13/15/17 12/14/33
f 16/20/32 12/14/16 15/19/34
f 21/25/35 22/26/36 19/23/35
f 21/25/35 19/23/35 18/22/35
f 23/27/37 24/28/37 21/25/38
f 23/27/37 21/25/37 18/22/37
f 25/29/39 23/27/39 18/22/39
f 25/29/39 18/22/39 17/21/39
f 26/30/40 27/31/41 7/7/8
f 26/30/42 7/7/8 14/17/43
f 8/8/9 7/7/44 27/31/45
f 8/8/46 27/31/45 28/32/47
f 28/33/48 29/34/49 9/10/11
f 28/33/50 9/10/11 8/9/13
f 1/1/31 9/10/11 29/34/51
f 1/1/31 29/34/49 30/35/52
f 30/35/53 31/36/54 2/2/2
f 30/35/55 2/2/56 1/1/1
f 16/20/26 2/2/2 31/36/54
f 16/20/26 31/36/54 32/37/57
f 32/37/58 33/38/59 13/15/17
f 32/37/58 13/15/17 16/20/32
f 14/16/60 13/15/17 33/38/59
f 14/16/19 33/38/59 26/39/61
f 24/28/62 23/27/63 27/31/45
f 24/28/64 27/31/45 26/30/42
f 28/32/47 27/31/41 23/27/63
f 28/32/47 23/27/63 25/29/65
f 17/21/66 29/34/67 28/33/50
f 17/21/68 28/33/48 25/29/69
f 30/35/52 29/34/51 17/21/70
f 30/35/52 17/21/66 20/24/71
f 19/23/72 31/36/54 30/35/73
f 19/23/72 30/35/53 20/24/74
f 32/37/57 31/36/54 19/23/72
f 32/37/57 19/23/72 22/26/75
f 21/25/76 33/38/59 32/37/77
f 21/25/76 32/37/58 22/26/78
f 26/39/61 33/38/59 21/25/76
f 26/39/61 21/25/79 24/28/80
f 3/40/81 15/41/81 34/42/81
f 3/40/81 34/42/81 35/43/81
f 4/40/82 3/41/82 35/42/82
f 4/40/82 35/42/82 36/43/82
f 10/40/83 4/41/83 36/42/83
f 10/40/83 36/42/83 37/43/83
f 5/40/84 10/41/84 37/42/84
f 5/40/84 37/42/84 38/43/84
f 6/40/85 5/41/85 38/42/85
f 6/40/85 38/42/85 39/43/85
f 11/40/86 6/41/86 39/42/86
f 11/40/86 39/42/86 40/43/86
f 12/40/87 11/41/87 40/42/87
f 12/40/87 40/42/87 41/43/87
f 15/40/88 12/41/88 41/42/88
f 15/40/88 41/42/88 34/43/88
f 35/40/89 34/41/89 42/42/89
f 35/40/89 42/42/89 43/43/89
f 36/40/90 35/41/90 43/42/90
f 36/40/91 43/42/91 44/43/91
f 37/40/92 36/41/92 44/42/92
f 37/40/93 44/42/93 45/43/93
f 38/40/94 37/41/94 45/42/94
f 38/40/95 45/42/95 46/43/95
f 39/40/96 38/41/96 46/42/96
f 39/40/96 46/42/96 47/43/96
f 40/40/97 39/41/97 47/42/97
f 40/40/97 47/42/97 48/43/97
f 41/40/98 40/41/98 48/42/98
f 41/40/98 48/42/98 49/43/98
f 34/40/99 41/41/99 49/42/99
f 34/40/100 49/42/100 42/43/100
f 43/43/101 42/43/101 49/43/101
f 43/43/101 49/43/101 48/43/101
f 43/43/101 48/43/101 47/43/101
f 43/43/101 47/43/101 46/43/101
f 43/43/101 46/43/101 45/43/101
f 43/43/101 45/43/101 44/43/101
