# exported by https://3dviewer.net
mtllib model.mtl
g FlowerPlant01
v 12.047205 -2.609469 11.485048
v 12.032911 -2.609469 11.485048
v 12.099075 -2.314951 11.536618
v 12.109271 -2.33286 11.536618
v 12.468256 -2.033605 11.654511
v 12.46327 -2.01838 11.654511
v 12.46327 -2.01838 11.741671
v 12.468256 -2.033605 11.741671
v 12.109271 -2.33286 11.859564
v 12.099075 -2.314951 11.859564
v 12.032911 -2.609469 11.911134
v 12.047205 -2.609469 11.911134
v 12.277449 -2.084399 11.614346
v 12.28153 -2.111542 11.614346
v 12.277449 -2.084399 11.781837
v 12.28153 -2.111542 11.781837
v 11.619223 -2.609469 11.47538
v 11.619223 -2.609469 11.489674
v 11.670794 -2.314951 11.42351
v 11.670794 -2.33286 11.413314
v 11.788686 -2.033605 11.054329
v 11.788686 -2.01838 11.059315
v 11.875846 -2.01838 11.059315
v 11.875846 -2.033605 11.054329
v 11.993738 -2.33286 11.413314
v 11.993738 -2.314951 11.42351
v 12.045308 -2.609469 11.489674
v 12.045308 -2.609469 11.47538
v 11.748521 -2.084399 11.245136
v 11.748521 -2.111542 11.241055
v 11.916013 -2.084399 11.245136
v 11.916013 -2.111542 11.241055
v 12.045308 -2.609469 11.923309
v 12.045308 -2.609469 11.909016
v 11.993738 -2.314951 11.97518
v 11.993738 -2.33286 11.985375
v 11.875845 -2.033605 12.34436
v 11.875845 -2.01838 12.339375
v 11.788686 -2.01838 12.339375
v 11.788686 -2.033605 12.34436
v 11.670794 -2.33286 11.985375
v 11.670794 -2.314951 11.97518
v 11.619224 -2.609469 11.909016
v 11.619224 -2.609469 11.923309
v 11.916012 -2.084399 12.153553
v 11.916012 -2.111542 12.157635
v 11.74852 -2.084399 12.153553
v 11.74852 -2.111542 12.157635
v 11.949056 -2.609265 11.761964
v 11.960582 -2.329458 11.75466
v 11.932379 -2.329458 11.707016
v 11.904857 -2.609265 11.714392
v 11.978791 -2.609265 11.81906
v 11.982863 -2.329458 11.806202
v 11.918149 -2.082917 11.784585
v 11.936754 -2.082917 11.825961
v 11.81459 -1.901982 11.857797
v 11.897833 -2.082917 11.744335
v 11.968667 -2.609265 11.74905
v 11.974896 -2.329458 11.745234
v 11.93133 -2.082917 11.775906
v 11.725647 -2.60976 11.640518
v 11.684756 -2.303115 11.630967
v 11.67095 -2.303115 11.684584
v 11.72319 -2.60976 11.705408
v 11.745062 -2.60976 11.57914
v 11.705504 -2.303115 11.578788
v 11.701756 -2.082917 11.634766
v 11.717906 -2.082917 11.59237
v 11.749561 -1.877633 11.645826
v 11.687615 -2.082917 11.677577
v 11.702653 -2.60976 11.635757
v 11.667973 -2.303115 11.627492
v 11.686303 -2.082917 11.631566
v 11.79975 -2.609405 11.702561
v 11.860023 -2.609405 11.702561
v 11.860023 -2.062409 11.702561
v 11.79975 -2.062409 11.702561
v 12.085363 -1.386307 11.688452
v 12.115705 -1.396643 11.688452
v 12.115705 -1.396643 11.656398
v 12.085363 -1.386307 11.656398
v 11.79975 -2.062409 11.642288
v 11.860023 -2.062409 11.642288
v 11.860023 -2.609405 11.642288
v 11.79975 -2.609405 11.642288
v 11.958405 -1.691159 11.693887
v 11.917774 -1.677319 11.693887
v 11.958405 -1.691159 11.650963
v 11.917774 -1.677319 11.650963
v 11.614405 -2.609469 11.911134
v 11.628698 -2.609469 11.911134
v 11.562535 -2.314951 11.859564
v 11.552339 -2.33286 11.859564
v 11.193355 -2.033605 11.741671
v 11.198339 -2.01838 11.741671
v 11.198339 -2.01838 11.654511
v 11.193355 -2.033605 11.654511
v 11.552339 -2.33286 11.536619
v 11.562535 -2.314951 11.536619
v 11.628698 -2.609469 11.485048
v 11.614405 -2.609469 11.485048
v 11.384162 -2.084399 11.781837
v 11.38008 -2.111542 11.781837
v 11.384162 -2.084399 11.614345
v 11.38008 -2.111542 11.614345
v 12.1243 -1.476714 11.625226
v 12.090252 -1.457186 11.596708
v 12.228153 -1.239364 11.562093
v 12.277987 -1.267946 11.603832
v 12.048165 -1.433047 11.596708
v 12.166554 -1.204034 11.562093
v 12.014117 -1.413519 11.625226
v 12.11672 -1.175452 11.603832
v 12.001112 -1.40606 11.671368
v 12.097685 -1.164535 11.671368
v 12.014117 -1.413519 11.71751
v 12.11672 -1.175452 11.738903
v 12.048165 -1.433047 11.746028
v 12.166554 -1.204034 11.780643
v 12.090252 -1.457186 11.746028
v 12.228153 -1.239364 11.780643
v 12.1243 -1.476714 11.71751
v 12.277987 -1.267946 11.738903
v 12.137305 -1.484173 11.671368
v 12.297023 -1.278864 11.671368
v 12.069208 -1.445117 11.671368
v 12.197353 -1.221699 11.671368
vn 0.11141 0.152332 -0.98203
vn 0.11141 0.152332 -0.98203
vn 0.11141 0.152333 -0.98203
vn 0.11141 0.152332 -0.98203
vn 0.950323 0.311264 0
vn 0.950323 0.311264 0
vn 0.950323 0.311264 0
vn 0.950323 0.311264 0
vn 0.11141 0.152332 0.98203
vn 0.111409 0.152332 0.98203
vn 0.11141 0.152333 0.98203
vn 0.11141 0.152333 0.98203
vn 0 -1 0
vn 0 -1 0
vn 0 -1 0
vn 0 -1 0
vn -0.975682 0.21919 0
vn -0.975682 0.21919 0
vn -0.975682 0.21919 0
vn -0.975682 0.21919 0
vn 0.97574 -0.218934 0
vn 0.97574 -0.218934 0
vn 0.97574 -0.218934 0
vn 0.97574 -0.218934 0
vn 0.29889 0.094718 -0.949575
vn 0.29889 0.094718 -0.949575
vn 0.29889 0.094718 -0.949575
vn 0.29889 0.094718 -0.949575
vn -0.790921 0.611918 0
vn -0.790921 0.611918 0
vn -0.790921 0.611918 0
vn -0.790921 0.611918 0
vn 0.29889 0.094718 0.949575
vn 0.29889 0.094718 0.949575
vn 0.29889 0.094718 0.949575
vn 0.29889 0.094718 0.949575
vn 0.78914 -0.614214 0
vn 0.78914 -0.614214 0
vn 0.78914 -0.614214 0
vn 0.78914 -0.614214 0
vn 0.195162 0.041764 -0.979882
vn 0.195162 0.041764 -0.979882
vn 0.195162 0.041764 -0.979882
vn 0.195162 0.041764 -0.979882
vn -0.33478 0.942296 0
vn -0.33478 0.942296 0
vn -0.33478 0.942296 0
vn -0.33478 0.942296 0
vn 0.195162 0.041764 0.979882
vn 0.195162 0.041764 0.979882
vn 0.195162 0.041764 0.979882
vn 0.195162 0.041764 0.979882
vn 0.385179 -0.922842 0
vn 0.385179 -0.922842 0
vn 0.385179 -0.922842 0
vn 0.385179 -0.922842 0
vn -0.982028 0.152354 -0.111401
vn -0.982028 0.152354 -0.111401
vn -0.982028 0.152354 -0.111401
vn -0.982028 0.152354 -0.111401
vn 0 0.311213 -0.95034
vn 0 0.311213 -0.95034
vn 0 0.311213 -0.95034
vn 0 0.311213 -0.95034
vn 0.98203 0.15234 -0.111401
vn 0.98203 0.15234 -0.111401
vn 0.98203 0.15234 -0.111401
vn 0.98203 0.15234 -0.111401
vn 0 -1 0
vn 0 -1 0
vn 0 -1 0
vn 0 -1 0
vn 0 0.219189 0.975682
vn 0 0.219189 0.975682
vn 0 0.219189 0.975682
vn 0 0.219189 0.975682
vn 0 -0.218938 -0.975739
vn 0 -0.218938 -0.975739
vn 0 -0.218938 -0.975739
vn 0 -0.218938 -0.975739
vn -0.949561 0.094761 -0.298921
vn -0.949561 0.094761 -0.298921
vn -0.949561 0.094761 -0.298921
vn -0.949561 0.094761 -0.298921
vn 0 0.611917 0.790922
vn 0 0.611917 0.790922
vn 0 0.611917 0.790922
vn 0 0.611917 0.790922
vn 0.949563 0.094761 -0.298916
vn 0.949563 0.094761 -0.298916
vn 0.949563 0.094761 -0.298916
vn 0.949563 0.094761 -0.298916
vn 0 -0.614217 -0.789137
vn 0 -0.614217 -0.789137
vn 0 -0.614217 -0.789137
vn 0 -0.614217 -0.789137
vn -0.979886 0.041723 -0.195149
vn -0.979886 0.041723 -0.195149
vn -0.979886 0.041723 -0.195149
vn -0.979886 0.041723 -0.195149
vn 0 0.942298 0.334777
vn 0 0.942298 0.334777
vn 0 0.942298 0.334777
vn 0 0.942298 0.334777
vn 0.979882 0.041777 -0.195156
vn 0.979882 0.041777 -0.195156
vn 0.979882 0.041777 -0.195156
vn 0.979882 0.041777 -0.195156
vn 0 -0.922842 -0.38518
vn 0 -0.922842 -0.38518
vn 0 -0.922842 -0.38518
vn 0 -0.922842 -0.38518
vn 0.982032 0.152332 0.111395
vn 0.982032 0.152332 0.111395
vn 0.982032 0.152332 0.111395
vn 0.982032 0.152332 0.111395
vn 0 0.311214 0.95034
vn 0 0.311214 0.95034
vn 0 0.311214 0.95034
vn 0 0.311214 0.95034
vn -0.982032 0.152332 0.111395
vn -0.982032 0.152332 0.111395
vn -0.982032 0.152332 0.111395
vn -0.982032 0.152332 0.111395
vn 0 -1 0
vn 0 -1 0
vn 0 -1 0
vn 0 -1 0
vn 0 0.21919 -0.975682
vn 0 0.21919 -0.975682
vn 0 0.219189 -0.975682
vn 0 0.219189 -0.975682
vn 0 -0.218939 0.975739
vn 0 -0.218939 0.975739
vn 0 -0.218939 0.975739
vn 0 -0.218939 0.975739
vn 0.949566 0.094721 0.29892
vn 0.949566 0.094721 0.29892
vn 0.949566 0.09472 0.29892
vn 0.949566 0.09472 0.29892
vn 0 0.611919 -0.79092
vn 0 0.611919 -0.79092
vn 0 0.611919 -0.79092
vn 0 0.611919 -0.79092
vn -0.949566 0.09472 0.29892
vn -0.949566 0.09472 0.29892
vn -0.949566 0.09472 0.29892
vn -0.949566 0.09472 0.29892
vn 0 -0.614215 0.789139
vn 0 -0.614215 0.789139
vn 0 -0.614215 0.789139
vn 0 -0.614215 0.789139
vn 0.979882 0.041777 0.195156
vn 0.979882 0.041777 0.195156
vn 0.979882 0.041777 0.195156
vn 0.979882 0.041777 0.195156
vn 0 0.942297 -0.334779
vn 0 0.942297 -0.334779
vn 0 0.942297 -0.334779
vn 0 0.942297 -0.334779
vn -0.979883 0.041777 0.195152
vn -0.979883 0.041777 0.195152
vn -0.979883 0.041777 0.195152
vn -0.979883 0.041777 0.195152
vn 0 -0.922842 0.385179
vn 0 -0.922842 0.385179
vn 0 -0.922842 0.385179
vn 0 -0.922842 0.385179
vn -0.852147 0.056233 0.520272
vn -0.871078 -0.054281 0.488137
vn -0.830155 -0.041495 0.555987
vn -0.79399 0.071238 0.603743
vn -0.901196 0.040668 0.431501
vn -0.905901 -0.062468 0.418857
vn -0.854518 -0.307819 0.418386
vn -0.871413 -0.303469 0.385417
vn -0.742862 -0.568328 0.353779
vn -0.841225 -0.290415 0.45607
vn 0.852708 -0.039644 -0.520881
vn 0.868939 0.065775 -0.490529
vn 0.989165 0.069717 -0.129195
vn 0.990349 -0.022308 -0.13679
vn 0.564628 -0.050529 -0.823797
vn 0.610925 0.054658 -0.789799
vn 0.851528 0.316925 -0.417683
vn 0.641976 0.323953 -0.694926
vn 0.719037 0.61252 -0.328336
vn 0.944586 0.308978 -0.110857
vn 0 -1 0
vn 0 -1 0
vn 0 -1 0
vn 0 -1 0
vn 0.9619 0.142414 0.23338
vn 0.961544 0.061455 0.267689
vn 0.979417 0.073686 0.187919
vn 0.978699 0.155274 0.134308
vn 0.935017 0.127991 0.3307
vn 0.937442 0.05398 0.343931
vn 0.938565 -0.121189 0.323124
vn 0.925851 -0.118127 0.358951
vn 0.916677 -0.231042 0.326072
vn 0.951608 -0.113444 0.285608
vn -0.96411 -0.127629 -0.232816
vn -0.96261 -0.047706 -0.266657
vn -0.792169 -0.037623 -0.609141
vn -0.79219 -0.104343 -0.601288
vn -0.974929 -0.129596 0.18088
vn -0.989446 -0.057077 0.13319
vn -0.935614 0.146677 -0.321112
vn -0.98948 0.139684 0.037656
vn -0.893479 0.298628 -0.335434
vn -0.776684 0.135515 -0.615141
vn 0 -1 0
vn 0 -1 0
vn 0 -1 0
vn 0 -1 0
vn 0 0 1
vn 0 0 1
vn 0 0 1
vn 0 0 1
vn 0.32245 0.946587 0
vn 0.32245 0.946587 0
vn 0.32245 0.946587 0
vn 0.32245 0.946587 0
vn 0 0 -1
vn 0 0 -1
vn 0 0 -1
vn 0 0 -1
vn 0 -1 0
vn 0 -1 0
vn 0 -1 0
vn 0 -1 0
vn 1 0 0
vn 1 0 0
vn 1 0 0
vn 1 0 0
vn -1 0 0
vn -1 0 0
vn -1 0 0
vn -1 0 0
vn 0.003029 0.022067 0.999752
vn 0.003029 0.022067 0.999752
vn 0.003029 0.022067 0.999752
vn 0.003029 0.022067 0.999752
vn 0.966636 -0.256154 0
vn 0.966636 -0.256154 0
vn 0.966636 -0.256154 0
vn 0.966636 -0.256154 0
vn 0.003029 0.022067 -0.999752
vn 0.003029 0.022067 -0.999752
vn 0.003029 0.022067 -0.999752
vn 0.003029 0.022067 -0.999752
vn -0.956103 0.29303 0
vn -0.956103 0.29303 0
vn -0.956103 0.29303 0
vn -0.956103 0.29303 0
vn 0.005307 0.015611 0.999864
vn 0.005307 0.015611 0.999864
vn 0.005307 0.015611 0.999864
vn 0.005307 0.015611 0.999864
vn 0.882074 -0.471111 0
vn 0.882074 -0.471111 0
vn 0.882074 -0.471111 0
vn 0.882074 -0.471111 0
vn 0.005326 0.015611 -0.999864
vn 0.005326 0.015611 -0.999864
vn 0.005326 0.015611 -0.999864
vn 0.005326 0.015611 -0.999864
vn -0.866572 0.499051 0
vn -0.866572 0.499051 0
vn -0.866572 0.499051 0
vn -0.866572 0.499051 0
vn -0.111406 0.152328 0.982031
vn -0.111406 0.152328 0.982031
vn -0.111406 0.152328 0.982031
vn -0.111406 0.152328 0.982031
vn -0.950361 0.311149 0
vn -0.950361 0.311149 0
vn -0.950361 0.311149 0
vn -0.950361 0.311149 0
vn -0.111406 0.152342 -0.982029
vn -0.111406 0.152342 -0.982029
vn -0.111406 0.152342 -0.982029
vn -0.111406 0.152342 -0.982029
vn 0 -1 0
vn 0 -1 0
vn 0 -1 0
vn 0 -1 0
vn 0.975684 0.219184 0
vn 0.975684 0.219184 0
vn 0.975684 0.219184 0
vn 0.975684 0.219184 0
vn -0.975739 -0.218935 0
vn -0.975739 -0.218935 0
vn -0.975739 -0.218935 0
vn -0.975739 -0.218935 0
vn -0.298885 0.094737 0.949575
vn -0.298885 0.094737 0.949575
vn -0.298885 0.094737 0.949575
vn -0.298885 0.094737 0.949575
vn 0.790921 0.611919 0
vn 0.790921 0.611919 0
vn 0.790921 0.611919 0
vn 0.790921 0.611919 0
vn -0.298885 0.094727 -0.949576
vn -0.298885 0.094727 -0.949576
vn -0.298885 0.094727 -0.949576
vn -0.298885 0.094727 -0.949576
vn -0.789141 -0.614213 0
vn -0.789141 -0.614213 0
vn -0.789141 -0.614213 0
vn -0.789141 -0.614213 0
vn -0.195163 0.041757 0.979882
vn -0.195163 0.041757 0.979882
vn -0.195163 0.041757 0.979882
vn -0.195163 0.041757 0.979882
vn 0.334774 0.942298 0
vn 0.334774 0.942298 0
vn 0.334774 0.942298 0
vn 0.334774 0.942298 0
vn -0.195163 0.041757 -0.979882
vn -0.195163 0.041757 -0.979882
vn -0.195163 0.041757 -0.979882
vn -0.195163 0.041757 -0.979882
vn -0.38518 -0.922841 0
vn -0.38518 -0.922842 0
vn -0.38518 -0.922841 0
vn -0.38518 -0.922841 0
vn 0.439043 -0.405389 -0.801811
vn 0.439043 -0.405389 -0.801811
vn 0.439043 -0.405389 -0.801811
vn 0.439043 -0.405389 -0.801811
vn -0.06627 -0.115544 -0.991089
vn -0.06627 -0.115544 -0.991089
vn -0.06627 -0.115544 -0.991089
vn -0.06627 -0.115544 -0.991089
vn -0.571587 0.1743 -0.801816
vn -0.571587 0.1743 -0.801816
vn -0.571587 0.1743 -0.801816
vn -0.571587 0.1743 -0.801816
vn -0.883912 0.353419 -0.30626
vn -0.883912 0.353419 -0.30626
vn -0.883912 0.353418 -0.30626
vn -0.883912 0.353419 -0.30626
vn -0.883908 0.353425 0.306264
vn -0.883908 0.353425 0.306264
vn -0.883908 0.353425 0.306264
vn -0.883908 0.353425 0.306264
vn -0.571607 0.1743 0.801801
vn -0.571607 0.1743 0.801801
vn -0.571607 0.1743 0.801801
vn -0.571607 0.1743 0.801801
vn -0.066255 -0.115545 0.99109
vn -0.066255 -0.115545 0.99109
vn -0.066255 -0.115545 0.99109
vn -0.066255 -0.115545 0.99109
vn 0.439067 -0.405385 0.8018
vn 0.439067 -0.405385 0.8018
vn 0.439067 -0.405385 0.8018
vn 0.439067 -0.405385 0.8018
vn 0.751359 -0.584518 0.306267
vn 0.751359 -0.584518 0.306267
vn 0.751359 -0.584517 0.306267
vn 0.751359 -0.584517 0.306267
vn 0.751361 -0.584514 -0.306268
vn 0.751361 -0.584514 -0.306268
vn 0.751361 -0.584514 -0.306268
vn 0.751361 -0.584514 -0.306268
vn -0.497522 -0.867451 -0.000003
vn -0.497522 -0.867451 -0.000003
vn -0.497521 -0.867452 0
vn -0.497522 -0.867451 -0.000004
vn -0.497522 -0.867451 -0.000002
vn -0.497515 -0.867455 0
vn -0.497517 -0.867454 0.000001
vn -0.497524 -0.86745 0.000002
vn -0.497521 -0.867452 0.000004
vn -0.497521 -0.867452 0.000004
vn -0.497522 -0.867451 0
vn 0.497516 0.867455 0.000002
vn 0.497513 0.867456 0.000002
vn 0.497522 0.867451 0
vn 0.497521 0.867452 0.000002
vn 0.49753 0.867447 0.000002
vn 0.497531 0.867446 0
vn 0.497522 0.867451 -0.000003
vn 0.497519 0.867453 -0.000003
vn 0.49752 0.867452 -0.000001
vn 0.497524 0.86745 -0.000001
vn 0.497526 0.867449 0
vt 0.375 0
vt 0.625 0
vt 0.625 0.25
vt 0.375 0.25
vt 0.375 0.25
vt 0.625 0.25
vt 0.625 0.5
vt 0.375 0.5
vt 0.375 0.5
vt 0.625 0.5
vt 0.625 0.75
vt 0.375 0.75
vt 0.625 1
vt 0.375 1
vt 0.875 0
vt 0.875 0.25
vt 0.125 0
vt 0.125 0.25
vt 0.625 0.25
vt 0.375 0.25
vt 0.625 0.5
vt 0.375 0.5
vt 0.375 0
vt 0.625 0
vt 0.625 0.25
vt 0.375 0.25
vt 0.375 0.25
vt 0.625 0.25
vt 0.625 0.5
vt 0.375 0.5
vt 0.375 0.5
vt 0.625 0.5
vt 0.625 0.75
vt 0.375 0.75
vt 0.625 1
vt 0.375 1
vt 0.875 0
vt 0.875 0.25
vt 0.125 0
vt 0.125 0.25
vt 0.625 0.25
vt 0.375 0.25
vt 0.625 0.5
vt 0.375 0.5
vt 0.375 0
vt 0.625 0
vt 0.625 0.25
vt 0.375 0.25
vt 0.375 0.25
vt 0.625 0.25
vt 0.625 0.5
vt 0.375 0.5
vt 0.375 0.5
vt 0.625 0.5
vt 0.625 0.75
vt 0.375 0.75
vt 0.625 1
vt 0.375 1
vt 0.875 0
vt 0.875 0.25
vt 0.125 0
vt 0.125 0.25
vt 0.625 0.25
vt 0.375 0.25
vt 0.625 0.5
vt 0.375 0.5
vt 0 0.5
vt 0.539829 0.5
vt 0.539829 1
vt 0 1
vt 0 0
vt 0.539829 0
vt 0 0
vt 1 0
vt 0.5 1
vt 0 0
vt 1 0
vt 0.5 1
vt 1 0
vt 1 0.5
vt 1 1
vt 0 0.5
vt 0.539829 0.5
vt 0.539829 1
vt 0 1
vt 0 0
vt 0.539829 0
vt 0 0
vt 1 0
vt 0.5 1
vt 0 0
vt 1 0
vt 0.5 1
vt 1 0
vt 1 0.5
vt 1 1
vt 0 0.5
vt 0.539829 0.5
vt 0.539829 1
vt 0 1
vt 0 0
vt 0.539829 0
vt 0 0
vt 1 0
vt 0.5 1
vt 0 0
vt 1 0
vt 0.5 1
vt 1 0
vt 1 0.5
vt 1 1
vt 0 0.5
vt 0.539829 0.5
vt 0.539829 1
vt 0 1
vt 0 0
vt 0.539829 0
vt 0 0
vt 1 0
vt 0.5 1
vt 0 0
vt 1 0
vt 0.5 1
vt 1 0
vt 1 0.5
vt 1 1
vt 0.375 0
vt 0.625 0
vt 0.625 0.25
vt 0.375 0.25
vt 0.375 0.25
vt 0.625 0.25
vt 0.625 0.5
vt 0.375 0.5
vt 0.375 0.5
vt 0.625 0.5
vt 0.625 0.75
vt 0.375 0.75
vt 0.625 1
vt 0.375 1
vt 0.875 0
vt 0.875 0.25
vt 0.125 0
vt 0.125 0.25
vt 0.625 0.25
vt 0.375 0.25
vt 0.625 0.5
vt 0.375 0.5
vt 0.375 0
vt 0.625 0
vt 0.625 0.25
vt 0.375 0.25
vt 0.375 0.25
vt 0.625 0.25
vt 0.625 0.5
vt 0.375 0.5
vt 0.375 0.5
vt 0.625 0.5
vt 0.625 0.75
vt 0.375 0.75
vt 0.625 1
vt 0.375 1
vt 0.875 0
vt 0.875 0.25
vt 0.125 0
vt 0.125 0.25
vt 0.625 0.25
vt 0.375 0.25
vt 0.625 0.5
vt 0.375 0.5
vt 0.375 0.3125
vt 0.4 0.3125
vt 0.4 0.68844
vt 0.375 0.68844
vt 0.425 0.3125
vt 0.425 0.68844
vt 0.45 0.3125
vt 0.45 0.68844
vt 0.475 0.3125
vt 0.475 0.68844
vt 0.5 0.3125
vt 0.5 0.68844
vt 0.525 0.3125
vt 0.525 0.68844
vt 0.55 0.3125
vt 0.55 0.68844
vt 0.575 0.3125
vt 0.575 0.68844
vt 0.6 0.3125
vt 0.6 0.68844
vt 0.625 0.3125
vt 0.625 0.68844
vt 0.548284 0.007647
vt 0.626409 0.064409
vt 0.5 0.15
vt 0.451716 0.007647
vt 0.373591 0.064409
vt 0.34375 0.15625
vt 0.373591 0.248091
vt 0.451716 0.304853
vt 0.548284 0.304853
vt 0.626409 0.248091
vt 0.65625 0.15625
vt 0.626409 0.935591
vt 0.548284 0.992353
vt 0.5 0.8375
vt 0.451716 0.992353
vt 0.373591 0.935591
vt 0.34375 0.84375
vt 0.373591 0.751909
vt 0.451716 0.695147
vt 0.548284 0.695147
vt 0.626409 0.751909
vt 0.65625 0.84375
usemtl Material
f 1/1/1 2/2/2 3/3/3
f 1/1/1 3/3/3 4/4/4
f 5/5/5 6/6/6 7/7/7
f 5/5/5 7/7/7 8/8/8
f 9/9/9 10/10/10 11/11/11
f 9/9/9 11/11/11 12/12/12
f 12/12/13 11/11/14 2/13/15
f 12/12/13 2/13/15 1/14/16
f 2/2/17 11/15/18 10/16/19
f 2/2/17 10/16/19 3/3/20
f 12/17/21 1/1/22 4/4/23
f 12/17/21 4/4/23 9/18/24
f 4/4/25 3/3/26 13/19/27
f 4/4/25 13/19/27 14/20/28
f 3/3/29 10/10/30 15/21/31
f 3/3/29 15/21/31 13/19/32
f 10/10/33 9/9/34 16/22/35
f 10/10/33 16/22/35 15/21/36
f 9/9/37 4/4/38 14/20/39
f 9/9/37 14/20/39 16/22/40
f 14/20/41 13/19/42 6/6/43
f 14/20/41 6/6/43 5/5/44
f 13/19/45 15/21/46 7/7/47
f 13/19/45 7/7/47 6/6/48
f 15/21/49 16/22/50 8/8/51
f 15/21/49 8/8/51 7/7/52
f 16/22/53 14/20/54 5/5/55
f 16/22/53 5/5/55 8/8/56
f 17/23/57 18/24/58 19/25/59
f 17/23/57 19/25/59 20/26/60
f 21/27/61 22/28/62 23/29/63
f 21/27/61 23/29/63 24/30/64
f 25/31/65 26/32/66 27/33/67
f 25/31/65 27/33/67 28/34/68
f 28/34/69 27/33/70 18/35/71
f 28/34/69 18/35/71 17/36/72
f 18/24/73 27/37/74 26/38/75
f 18/24/73 26/38/75 19/25/76
f 28/39/77 17/23/78 20/26/79
f 28/39/77 20/26/79 25/40/80
f 20/26/81 19/25/82 29/41/83
f 20/26/81 29/41/83 30/42/84
f 19/25/85 26/32/86 31/43/87
f 19/25/85 31/43/87 29/41/88
f 26/32/89 25/31/90 32/44/91
f 26/32/89 32/44/91 31/43/92
f 25/31/93 20/26/94 30/42/95
f 25/31/93 30/42/95 32/44/96
f 30/42/97 29/41/98 22/28/99
f 30/42/97 22/28/99 21/27/100
f 29/41/101 31/43/102 23/29/103
f 29/41/101 23/29/103 22/28/104
f 31/43/105 32/44/106 24/30/107
f 31/43/105 24/30/107 23/29/108
f 32/44/109 30/42/110 21/27/111
f 32/44/109 21/27/111 24/30/112
f 33/45/113 34/46/114 35/47/115
f 33/45/113 35/47/115 36/48/116
f 37/49/117 38/50/118 39/51/119
f 37/49/117 39/51/119 40/52/120
f 41/53/121 42/54/122 43/55/123
f 41/53/121 43/55/123 44/56/124
f 44/56/125 43/55/126 34/57/127
f 44/56/125 34/57/127 33/58/128
f 34/46/129 43/59/130 42/60/131
f 34/46/129 42/60/131 35/47/132
f 44/61/133 33/45/134 36/48/135
f 44/61/133 36/48/135 41/62/136
f 36/48/137 35/47/138 45/63/139
f 36/48/137 45/63/139 46/64/140
f 35/47/141 42/54/142 47/65/143
f 35/47/141 47/65/143 45/63/144
f 42/54/145 41/53/146 48/66/147
f 42/54/145 48/66/147 47/65/148
f 41/53/149 36/48/150 46/64/151
f 41/53/149 46/64/151 48/66/152
f 46/64/153 45/63/154 38/50/155
f 46/64/153 38/50/155 37/49/156
f 45/63/157 47/65/158 39/51/159
f 45/63/157 39/51/159 38/50/160
f 47/65/161 48/66/162 40/52/163
f 47/65/161 40/52/163 39/51/164
f 48/66/165 46/64/166 37/49/167
f 48/66/165 37/49/167 40/52/168
f 49/67/169 50/68/170 51/69/171
f 49/67/169 51/69/171 52/70/172
f 53/71/173 54/72/174 50/68/170
f 53/71/173 50/68/170 49/67/169
f 55/73/175 56/74/176 57/75/177
f 58/76/178 55/77/175 57/78/177
f 50/68/170 54/72/174 56/79/176
f 50/68/170 56/79/176 55/80/175
f 51/69/171 50/68/170 55/80/175
f 51/69/171 55/80/175 58/81/178
f 59/82/179 60/83/180 54/84/181
f 59/82/179 54/84/181 53/85/182
f 52/86/183 51/87/184 60/83/180
f 52/86/183 60/83/180 59/82/179
f 61/88/185 58/89/186 57/90/187
f 56/91/188 61/92/185 57/93/187
f 60/83/180 51/87/184 58/94/186
f 60/83/180 58/94/186 61/95/185
f 54/84/181 60/83/180 61/95/185
f 54/84/181 61/95/185 56/96/188
f 49/67/189 52/86/190 59/82/191
f 49/67/189 59/82/191 53/71/192
f 62/97/193 63/98/194 64/99/195
f 62/97/193 64/99/195 65/100/196
f 66/101/197 67/102/198 63/98/194
f 66/101/197 63/98/194 62/97/193
f 68/103/199 69/104/200 70/105/201
f 71/106/202 68/107/199 70/108/201
f 63/98/194 67/102/198 69/109/200
f 63/98/194 69/109/200 68/110/199
f 64/99/195 63/98/194 68/110/199
f 64/99/195 68/110/199 71/111/202
f 72/112/203 73/113/204 67/114/205
f 72/112/203 67/114/205 66/115/206
f 65/116/207 64/117/208 73/113/204
f 65/116/207 73/113/204 72/112/203
f 74/118/209 71/119/210 70/120/211
f 69/121/212 74/122/209 70/123/211
f 73/113/204 64/117/208 71/124/210
f 73/113/204 71/124/210 74/125/209
f 67/114/205 73/113/204 74/125/209
f 67/114/205 74/125/209 69/126/212
f 62/97/213 65/116/214 72/112/215
f 62/97/213 72/112/215 66/101/216
f 75/127/217 76/128/218 77/129/219
f 75/127/217 77/129/219 78/130/220
f 79/131/221 80/132/222 81/133/223
f 79/131/221 81/133/223 82/134/224
f 83/135/225 84/136/226 85/137/227
f 83/135/225 85/137/227 86/138/228
f 86/138/229 85/137/230 76/139/231
f 86/138/229 76/139/231 75/140/232
f 76/128/233 85/141/234 84/142/235
f 76/128/233 84/142/235 77/129/236
f 86/143/237 75/127/238 78/130/239
f 86/143/237 78/130/239 83/144/240
f 78/130/241 77/129/242 87/145/243
f 78/130/241 87/145/243 88/146/244
f 77/129/245 84/136/246 89/147/247
f 77/129/245 89/147/247 87/145/248
f 84/136/249 83/135/250 90/148/251
f 84/136/249 90/148/251 89/147/252
f 83/135/253 78/130/254 88/146/255
f 83/135/253 88/146/255 90/148/256
f 88/146/257 87/145/258 80/132/259
f 88/146/257 80/132/259 79/131/260
f 87/145/261 89/147/262 81/133/263
f 87/145/261 81/133/263 80/132/264
f 89/147/265 90/148/266 82/134/267
f 89/147/265 82/134/267 81/133/268
f 90/148/269 88/146/270 79/131/271
f 90/148/269 79/131/271 82/134/272
f 91/149/273 92/150/274 93/151/275
f 91/149/273 93/151/275 94/152/276
f 95/153/277 96/154/278 97/155/279
f 95/153/277 97/155/279 98/156/280
f 99/157/281 100/158/282 101/159/283
f 99/157/281 101/159/283 102/160/284
f 102/160/285 101/159/286 92/161/287
f 102/160/285 92/161/287 91/162/288
f 92/150/289 101/163/290 100/164/291
f 92/150/289 100/164/291 93/151/292
f 102/165/293 91/149/294 94/152/295
f 102/165/293 94/152/295 99/166/296
f 94/152/297 93/151/298 103/167/299
f 94/152/297 103/167/299 104/168/300
f 93/151/301 100/158/302 105/169/303
f 93/151/301 105/169/303 103/167/304
f 100/158/305 99/157/306 106/170/307
f 100/158/305 106/170/307 105/169/308
f 99/157/309 94/152/310 104/168/311
f 99/157/309 104/168/311 106/170/312
f 104/168/313 103/167/314 96/154/315
f 104/168/313 96/154/315 95/153/316
f 103/167/317 105/169/318 97/155/319
f 103/167/317 97/155/319 96/154/320
f 105/169/321 106/170/322 98/156/323
f 105/169/321 98/156/323 97/155/324
f 106/170/325 104/168/326 95/153/327
f 106/170/325 95/153/327 98/156/328
f 107/171/329 108/172/330 109/173/331
f 107/171/329 109/173/331 110/174/332
f 108/172/333 111/175/334 112/176/335
f 108/172/333 112/176/335 109/173/336
f 111/175/337 113/177/338 114/178/339
f 111/175/337 114/178/339 112/176/340
f 113/177/341 115/179/342 116/180/343
f 113/177/341 116/180/343 114/178/344
f 115/179/345 117/181/346 118/182/347
f 115/179/345 118/182/347 116/180/348
f 117/181/349 119/183/350 120/184/351
f 117/181/349 120/184/351 118/182/352
f 119/183/353 121/185/354 122/186/355
f 119/183/353 122/186/355 120/184/356
f 121/185/357 123/187/358 124/188/359
f 121/185/357 124/188/359 122/186/360
f 123/187/361 125/189/362 126/190/363
f 123/187/361 126/190/363 124/188/364
f 125/189/365 107/191/366 110/192/367
f 125/189/365 110/192/367 126/190/368
f 108/193/369 107/194/370 127/195/371
f 111/196/372 108/193/369 127/195/371
f 113/197/373 111/196/372 127/195/371
f 115/198/374 113/197/373 127/195/371
f 117/199/375 115/198/374 127/195/371
f 119/200/376 117/199/375 127/195/371
f 121/201/377 119/200/376 127/195/371
f 123/202/378 121/201/377 127/195/371
f 125/203/379 123/202/378 127/195/371
f 107/194/370 125/203/379 127/195/371
f 110/204/380 109/205/381 128/206/382
f 109/205/381 112/207/383 128/206/382
f 112/207/383 114/208/384 128/206/382
f 114/208/384 116/209/385 128/206/382
f 116/209/385 118/210/386 128/206/382
f 118/210/386 120/211/387 128/206/382
f 120/211/387 122/212/388 128/206/382
f 122/212/388 124/213/389 128/206/382
f 124/213/389 126/214/390 128/206/382
f 126/214/390 110/204/380 128/206/382
