# exported by https://3dviewer.net
mtllib grass.mtl
g Herb02
v 20.927004 -1.94639 12.147448
v 20.969341 -1.9536 12.101694
v 21.083258 -1.750218 12.126979
v 20.938557 -1.941899 12.04828
v 20.896219 -1.93469 12.094033
v 20.826269 -2.228987 12.145167
v 20.888224 -2.245122 12.081657
v 20.843807 -2.228987 12.004852
v 20.781853 -2.212853 12.068362
v 20.78413 -2.615945 12.154705
v 20.862898 -2.615945 12.07396
v 20.806427 -2.615945 11.976313
v 20.727659 -2.615944 12.057057
v 20.765827 -2.037805 11.798804
v 20.719007 -2.048304 11.767015
v 20.699144 -1.80882 11.648375
v 20.678207 -2.042108 11.808969
v 20.725027 -2.03161 11.840759
v 20.801958 -2.256893 11.856907
v 20.734749 -2.273028 11.811446
v 20.677984 -2.256893 11.872526
v 20.745193 -2.240758 11.917988
v 20.826244 -2.615945 11.902796
v 20.740797 -2.615945 11.844996
v 20.668627 -2.615945 11.922653
v 20.754074 -2.615944 11.980453
v 20.446877 -2.054151 11.976369
v 20.417543 -2.078244 12.026338
v 20.284924 -1.88601 12.026338
v 20.446877 -2.054151 12.076307
v 20.476208 -2.030059 12.026338
v 20.580462 -2.312379 11.955635
v 20.542931 -2.353908 12.026338
v 20.580462 -2.312379 12.097041
v 20.617992 -2.27085 12.026338
v 20.65707 -2.615945 11.936447
v 20.588924 -2.615945 12.026338
v 20.65707 -2.615945 12.116228
v 20.725216 -2.615944 12.026338
vn 0.627067 -0.431829 0.648314
vn 0.627067 -0.431829 0.648314
vn 0.627067 -0.43183 0.648314
vn 0.769419 -0.365855 -0.523588
vn 0.769419 -0.365855 -0.523588
vn 0.769419 -0.365855 -0.523588
vn -0.518583 0.62917 -0.578979
vn -0.518583 0.62917 -0.578979
vn -0.518583 0.62917 -0.578979
vn -0.651079 0.570801 0.500283
vn -0.651079 0.570801 0.500283
vn -0.651079 0.570801 0.500283
vn 0.675779 -0.241129 0.696549
vn 0.675779 -0.241129 0.696549
vn 0.675779 -0.241129 0.696549
vn 0.675779 -0.241129 0.696549
vn 0.830646 -0.195275 -0.521436
vn 0.830646 -0.195275 -0.521436
vn 0.830646 -0.195275 -0.521435
vn 0.830646 -0.195275 -0.521436
vn -0.648755 0.324177 -0.688496
vn -0.648755 0.324177 -0.688496
vn -0.648755 0.324177 -0.688496
vn -0.648755 0.324177 -0.688496
vn -0.803467 0.282066 0.52429
vn -0.803467 0.282066 0.52429
vn -0.803467 0.282066 0.52429
vn -0.803467 0.282066 0.52429
vn 0.71101 -0.061601 0.700479
vn 0.71101 -0.061601 0.700479
vn 0.71101 -0.061601 0.700479
vn 0.71101 -0.061601 0.700479
vn 0.862791 -0.047327 -0.503341
vn 0.862791 -0.047327 -0.503341
vn 0.862791 -0.047327 -0.503341
vn 0.862791 -0.047327 -0.503341
vn -0.704329 0.116945 -0.700175
vn -0.704329 0.116945 -0.700175
vn -0.704329 0.116945 -0.700175
vn -0.704329 0.116945 -0.700175
vn -0.856863 0.103349 0.505079
vn -0.856863 0.103349 0.505079
vn -0.856863 0.103349 0.505079
vn -0.856863 0.103349 0.505079
vn -0.000002 -1 -0.000001
vn -0.000002 -1 -0.000001
vn -0.000002 -1 -0.000001
vn -0.000002 -1 -0.000001
vn 0.580114 -0.322442 -0.747997
vn 0.580114 -0.322442 -0.747997
vn 0.580114 -0.322442 -0.747997
vn -0.693765 -0.365138 -0.620778
vn -0.693765 -0.365138 -0.620778
vn -0.693765 -0.365138 -0.620778
vn -0.559794 0.503372 0.658215
vn -0.559794 0.503372 0.658215
vn -0.559794 0.503372 0.658215
vn 0.640633 0.543131 0.542769
vn 0.640633 0.543131 0.542769
vn 0.640633 0.543131 0.542769
vn 0.575842 -0.119552 -0.808773
vn 0.575842 -0.119552 -0.808773
vn 0.575842 -0.119552 -0.808773
vn 0.575842 -0.119552 -0.808773
vn -0.733239 -0.186546 -0.653882
vn -0.733239 -0.186546 -0.653882
vn -0.733239 -0.186546 -0.653882
vn -0.733239 -0.186546 -0.653882
vn -0.582124 0.231461 0.77946
vn -0.582124 0.231461 0.77946
vn -0.582124 0.231461 0.77946
vn -0.582124 0.231461 0.77946
vn 0.725222 0.292341 0.62337
vn 0.725222 0.292341 0.62337
vn 0.725222 0.292341 0.62337
vn 0.725222 0.292341 0.62337
vn 0.563929 -0.068761 -0.822955
vn 0.563929 -0.068761 -0.822955
vn 0.563929 -0.068761 -0.822955
vn 0.563929 -0.068761 -0.822955
vn -0.734787 -0.07687 -0.673928
vn -0.734787 -0.07687 -0.673928
vn -0.734787 -0.07687 -0.673928
vn -0.734787 -0.07687 -0.673928
vn -0.564921 0.125432 0.815556
vn -0.564921 0.125432 0.815555
vn -0.564921 0.125432 0.815555
vn -0.564921 0.125432 0.815555
vn 0.73373 0.131522 0.66659
vn 0.73373 0.131522 0.66659
vn 0.73373 0.131522 0.66659
vn 0.73373 0.131522 0.66659
vn 0 -1 0.000003
vn 0 -1 0.000003
vn 0 -1 0.000003
vn 0 -1 0.000003
vn -0.656302 -0.452749 -0.603561
vn -0.656302 -0.452749 -0.603561
vn -0.656302 -0.452749 -0.603561
vn -0.656297 -0.452762 0.603557
vn -0.656297 -0.452762 0.603557
vn -0.656297 -0.452762 0.603557
vn 0.483984 0.642651 0.593935
vn 0.483984 0.642651 0.593935
vn 0.483984 0.642651 0.593935
vn 0.483972 0.642656 -0.59394
vn 0.483972 0.642656 -0.59394
vn 0.483972 0.642656 -0.59394
vn -0.735689 -0.333972 -0.589258
vn -0.735689 -0.333972 -0.589258
vn -0.735689 -0.333973 -0.589258
vn -0.735689 -0.333972 -0.589258
vn -0.735688 -0.333976 0.589257
vn -0.735688 -0.333976 0.589257
vn -0.735688 -0.333976 0.589257
vn -0.735688 -0.333976 0.589257
vn 0.688488 0.404931 0.601677
vn 0.688488 0.404931 0.601677
vn 0.688488 0.404931 0.601677
vn 0.688488 0.404931 0.601677
vn 0.688491 0.404926 -0.601678
vn 0.688491 0.404926 -0.601678
vn 0.688491 0.404926 -0.601678
vn 0.688491 0.404926 -0.601678
vn -0.806282 -0.155411 -0.570752
vn -0.806282 -0.155411 -0.570752
vn -0.806282 -0.155411 -0.570752
vn -0.806282 -0.155411 -0.570752
vn -0.806279 -0.155414 0.570755
vn -0.806279 -0.155414 0.570755
vn -0.806279 -0.155414 0.570755
vn -0.806279 -0.155414 0.570755
vn 0.781758 0.238597 0.576131
vn 0.781758 0.238597 0.576131
vn 0.781757 0.238597 0.576131
vn 0.781758 0.238597 0.576131
vn 0.781761 0.238593 -0.576128
vn 0.781761 0.238593 -0.576128
vn 0.781761 0.238593 -0.576128
vn 0.781761 0.238593 -0.576128
vn 0.000002 -1 0.000001
vn 0.000002 -1 0.000001
vn 0.000002 -1 0.000001
vn 0.000002 -1 0.000001
vt 0.25 0.5
vt 0.375 0.5
vt 0.5 1
vt 0.5 0.5
vt 0.625 0.5
vt 0.75 0.5
vt 0 0
vt 1 0
vt 1 1
vt 0 1
vt 0 0
vt 1 0
vt 1 1
vt 0 1
vt 0 0
vt 1 0
vt 1 1
vt 0 1
vt 0 0
vt 1 0
vt 1 1
vt 0 1
vt 0 0
vt 1 0
vt 1 1
vt 0 1
vt 0 0
vt 1 0
vt 1 1
vt 0 1
vt 0 0
vt 1 0
vt 1 1
vt 0 1
vt 0 0
vt 1 0
vt 1 1
vt 0 1
vt 0.25 0.5
vt 0.375 0.5
vt 0.5 1
vt 0.5 0.5
vt 0.625 0.5
vt 0.75 0.5
vt 0 0
vt 1 0
vt 1 1
vt 0 1
vt 0 0
vt 1 0
vt 1 1
vt 0 1
vt 0 0
vt 1 0
vt 1 1
vt 0 1
vt 0 0
vt 1 0
vt 1 1
vt 0 1
vt 0 0
vt 1 0
vt 1 1
vt 0 1
vt 0 0
vt 1 0
vt 1 1
vt 0 1
vt 0 0
vt 1 0
vt 1 1
vt 0 1
vt 0 0
vt 1 0
vt 1 1
vt 0 1
vt 0.25 0.5
vt 0.375 0.5
vt 0.5 1
vt 0.5 0.5
vt 0.625 0.5
vt 0.75 0.5
vt 0 0
vt 1 0
vt 1 1
vt 0 1
vt 0 0
vt 1 0
vt 1 1
vt 0 1
vt 0 0
vt 1 0
vt 1 1
vt 0 1
vt 0 0
vt 1 0
vt 1 1
vt 0 1
vt 0 0
vt 1 0
vt 1 1
vt 0 1
vt 0 0
vt 1 0
vt 1 1
vt 0 1
vt 0 0
vt 1 0
vt 1 1
vt 0 1
vt 0 0
vt 1 0
vt 1 1
vt 0 1
usemtl Material
f 1/1/1 2/2/2 3/3/3
f 2/2/4 4/4/5 3/3/6
f 4/4/7 5/5/8 3/3/9
f 5/5/10 1/6/11 3/3/12
f 2/7/13 1/8/14 6/9/15
f 2/7/13 6/9/15 7/10/16
f 4/11/17 2/12/18 7/13/19
f 4/11/17 7/13/19 8/14/20
f 5/15/21 4/16/22 8/17/23
f 5/15/21 8/17/23 9/18/24
f 1/19/25 5/20/26 9/21/27
f 1/19/25 9/21/27 6/22/28
f 7/23/29 6/24/30 10/25/31
f 7/23/29 10/25/31 11/26/32
f 8/27/33 7/28/34 11/29/35
f 8/27/33 11/29/35 12/30/36
f 9/31/37 8/32/38 12/33/39
f 9/31/37 12/33/39 13/34/40
f 6/35/41 9/36/42 13/37/43
f 6/35/41 13/37/43 10/38/44
f 11/26/45 10/38/46 13/34/47
f 11/26/45 13/34/47 12/30/48
f 14/39/49 15/40/50 16/41/51
f 15/40/52 17/42/53 16/41/54
f 17/42/55 18/43/56 16/41/57
f 18/43/58 14/44/59 16/41/60
f 15/45/61 14/46/62 19/47/63
f 15/45/61 19/47/63 20/48/64
f 17/49/65 15/50/66 20/51/67
f 17/49/65 20/51/67 21/52/68
f 18/53/69 17/54/70 21/55/71
f 18/53/69 21/55/71 22/56/72
f 14/57/73 18/58/74 22/59/75
f 14/57/73 22/59/75 19/60/76
f 20/61/77 19/62/78 23/63/79
f 20/61/77 23/63/79 24/64/80
f 21/65/81 20/66/82 24/67/83
f 21/65/81 24/67/83 25/68/84
f 22/69/85 21/70/86 25/71/87
f 22/69/85 25/71/87 26/72/88
f 19/73/89 22/74/90 26/75/91
f 19/73/89 26/75/91 23/76/92
f 24/64/93 23/76/94 26/72/95
f 24/64/93 26/72/95 25/68/96
f 27/77/97 28/78/98 29/79/99
f 28/78/100 30/80/101 29/79/102
f 30/80/103 31/81/104 29/79/105
f 31/81/106 27/82/107 29/79/108
f 28/83/109 27/84/110 32/85/111
f 28/83/109 32/85/111 33/86/112
f 30/87/113 28/88/114 33/89/115
f 30/87/113 33/89/115 34/90/116
f 31/91/117 30/92/118 34/93/119
f 31/91/117 34/93/119 35/94/120
f 27/95/121 31/96/122 35/97/123
f 27/95/121 35/97/123 32/98/124
f 33/99/125 32/100/126 36/101/127
f 33/99/125 36/101/127 37/102/128
f 34/103/129 33/104/130 37/105/131
f 34/103/129 37/105/131 38/106/132
f 35/107/133 34/108/134 38/109/135
f 35/107/133 38/109/135 39/110/136
f 32/111/137 35/112/138 39/113/139
f 32/111/137 39/113/139 36/114/140
f 37/102/141 36/114/142 39/110/143
f 37/102/141 39/110/143 38/106/144
