# exported by https://3dviewer.net
mtllib tree.mtl
g 4_Cylinder
v 0 0.032931 -0.61017
v 0 1.918206 -0.61017
v 0.431455 1.918206 -0.431455
v 0.431455 0.032931 -0.431455
v 0.61017 1.918206 0
v 0.61017 0.032931 0
v 0.431455 1.918206 0.431455
v 0.431455 0.032931 0.431455
v 0 1.918206 0.61017
v 0 0.032931 0.61017
v -0.431456 1.918206 0.431455
v -0.431456 0.032931 0.431455
v -0.61017 1.918206 0
v -0.61017 0.032931 0
v -0.431456 1.918206 -0.431455
v -0.431456 0.032931 -0.431455
v -2.093098 1.441365 2.141642
v 0.048544 5.724648 0
v -2.093098 1.441365 -2.141642
v 2.190186 1.441365 -2.141642
v 2.190186 1.441365 2.141642
v -1.653693 2.913893 1.702237
v 0.048544 6.318366 0
v -1.653693 2.913893 -1.702237
v 1.75078 2.913893 -1.702237
v 1.75078 2.913893 1.702237
v -1.335493 4.059485 1.384037
v 0.048544 6.827559 0
v -1.335493 4.059485 -1.384037
v 1.43258 4.059485 -1.384037
v 1.43258 4.059485 1.384037
vn 0.3827 0 -0.9239
vn 0.9239 0 -0.3827
vn 0.9239 0 0.3827
vn 0.3827 0 0.9239
vn -0.3827 0 0.9239
vn -0.9239 0 0.3827
vn 0 1 0
vn -0.9239 0 -0.3827
vn -0.3827 0 -0.9239
vn 0 -1 0
vn -0.8944 0.4472 0
vn 0 0.4472 -0.8944
vn 0.8944 0.4472 0
vn 0 0.4472 0.8944
vt 1 0.5
vt 1 1
vt 0.875 1
vt 0.875 0.5
vt 0.75 1
vt 0.75 0.5
vt 0.625 1
vt 0.625 0.5
vt 0.5 1
vt 0.5 0.5
vt 0.375 1
vt 0.375 0.5
vt 0.25 1
vt 0.25 0.5
vt 0.419706 0.419706
vt 0.25 0.49
vt 0.080294 0.419706
vt 0.01 0.25
vt 0.080294 0.080294
vt 0.25 0.01
vt 0.419706 0.080294
vt 0.49 0.25
vt 0.125 1
vt 0.125 0.5
vt 0 1
vt 0 0.5
vt 0.75 0.49
vt 0.919706 0.419706
vt 0.99 0.25
vt 0.919706 0.080294
vt 0.75 0.01
vt 0.580294 0.080294
vt 0.51 0.25
vt 0.580294 0.419706
vt 0.375 0
vt 0.625 0.25
vt 0.375 0.25
vt 0.625 0.5
vt 0.375 0.5
vt 0.625 0.75
vt 0.375 0.75
vt 0.625 1
vt 0.375 1
vt 0.125 0.5
vt 0.125 0.75
vt 0.375 0
vt 0.625 0.25
vt 0.375 0.25
vt 0.625 0.5
vt 0.375 0.5
vt 0.625 0.75
vt 0.375 0.75
vt 0.625 1
vt 0.375 1
vt 0.125 0.5
vt 0.125 0.75
vt 0.375 0
vt 0.625 0.25
vt 0.375 0.25
vt 0.625 0.5
vt 0.375 0.5
vt 0.625 0.75
vt 0.375 0.75
vt 0.625 1
vt 0.375 1
vt 0.125 0.5
vt 0.125 0.75
usemtl Material
f 1/1/1 2/2/1 3/3/1
f 1/1/1 3/3/1 4/4/1
f 4/4/2 3/3/2 5/5/2
f 4/4/2 5/5/2 6/6/2
f 6/6/3 5/5/3 7/7/3
f 6/6/3 7/7/3 8/8/3
f 8/8/4 7/7/4 9/9/4
f 8/8/4 9/9/4 10/10/4
f 10/10/5 9/9/5 11/11/5
f 10/10/5 11/11/5 12/12/5
f 12/12/6 11/11/6 13/13/6
f 12/12/6 13/13/6 14/14/6
f 3/15/7 2/16/7 15/17/7
f 3/15/7 15/17/7 13/18/7
f 3/15/7 13/18/7 11/19/7
f 3/15/7 11/19/7 9/20/7
f 3/15/7 9/20/7 7/21/7
f 3/15/7 7/21/7 5/22/7
f 14/14/8 13/13/8 15/23/8
f 14/14/8 15/23/8 16/24/8
f 16/24/9 15/23/9 2/25/9
f 16/24/9 2/25/9 1/26/9
f 1/27/10 4/28/10 6/29/10
f 1/27/10 6/29/10 8/30/10
f 1/27/10 8/30/10 10/31/10
f 1/27/10 10/31/10 12/32/10
f 1/27/10 12/32/10 14/33/10
f 1/27/10 14/33/10 16/34/10
f 17/35/11 18/36/11 19/37/11
f 19/37/12 18/38/12 20/39/12
f 20/39/13 18/40/13 21/41/13
f 21/41/14 18/42/14 17/43/14
f 19/44/10 20/39/10 21/41/10
f 19/44/10 21/41/10 17/45/10
f 22/46/11 23/47/11 24/48/11
f 24/48/12 23/49/12 25/50/12
f 25/50/13 23/51/13 26/52/13
f 26/52/14 23/53/14 22/54/14
f 24/55/10 25/50/10 26/52/10
f 24/55/10 26/52/10 22/56/10
f 27/57/11 28/58/11 29/59/11
f 29/59/12 28/60/12 30/61/12
f 30/61/13 28/62/13 31/63/13
f 31/63/14 28/64/14 27/65/14
f 29/66/10 30/61/10 31/63/10
f 29/66/10 31/63/10 27/67/10
