# Blender 3.6.0
# www.blender.org
mtllib tallshrub.mtl
o tallshrub
v -0.526087 -0.030883 0.551084
v -0.696087 -0.131638 -0.008746
v -0.687311 -0.388056 -0.002543
v -0.513105 -0.388056 0.530237
v 0.473099 -0.388056 0.615777
v 0.676586 -0.401782 -0.089222
v 0.753235 -0.107642 -0.089307
v 0.513123 0.071056 0.632836
v -0.060150 -0.116234 0.725645
v -0.035028 -0.394285 0.734705
v 0.539577 -0.446090 -0.614711
v -0.002167 -0.388056 -0.682612
v 0.072968 -0.093765 -0.698881
v 0.570442 -0.152440 -0.655797
v -0.438591 -0.299474 -0.554704
v -0.525404 -0.067246 -0.540265
v -0.015051 0.998494 0.253719
v -0.010202 1.086512 0.017440
v -0.238682 0.977244 0.012753
v -0.193136 0.936469 0.211209
v -0.012169 1.001796 -0.188389
v -0.181257 0.976975 -0.169076
v 0.227957 0.966173 -0.026644
v 0.191969 0.946726 -0.209616
v 0.135761 0.972197 0.243214
v 0.454567 0.435692 -0.520516
v 0.575069 0.475467 -0.078217
v 0.373486 0.487788 0.520901
v -0.040997 0.502589 0.574595
v -0.431381 0.432514 0.451673
v -0.555090 0.474874 -0.002423
v -0.419615 0.504843 -0.427204
v 0.024265 0.516320 -0.520281
v -0.388201 -0.445127 -0.487156
v -0.607992 -0.523406 0.000782
v -0.454048 -0.523406 0.471594
v -0.031578 -0.528911 0.652280
v 0.417450 -0.523406 0.547185
v 0.597267 -0.535535 -0.075815
v 0.476196 -0.574690 -0.540183
v -0.002539 -0.523406 -0.600187
v -0.282331 -0.543230 -0.345236
v -0.441341 -0.599862 0.007769
v -0.329969 -0.599862 0.348383
v -0.024328 -0.603845 0.479101
v 0.300526 -0.599862 0.403070
v 0.430618 -0.608637 -0.047646
v 0.343025 -0.636964 -0.383598
v -0.003319 -0.599862 -0.427010
vn -0.9510 0.1387 0.2762
vn -0.9948 0.1009 -0.0159
vn -0.9946 -0.1025 0.0170
vn -0.9519 -0.0410 0.3037
vn 0.9378 -0.1523 0.3120
vn 0.9802 -0.1744 0.0941
vn 0.9943 0.0998 0.0371
vn 0.9943 0.0997 0.0371
vn 0.9477 0.1389 0.2874
vn 0.1336 0.1613 0.9778
vn -0.0909 0.1180 0.9888
vn -0.0438 -0.0261 0.9987
vn 0.1335 0.1613 0.9778
vn -0.0439 -0.0260 0.9987
vn 0.1946 -0.0146 0.9808
vn 0.0929 -0.1133 -0.9892
vn -0.0907 -0.0619 -0.9940
vn -0.0634 0.1518 -0.9864
vn 0.0929 -0.1132 -0.9892
vn 0.0892 0.1116 -0.9897
vn 0.9518 0.0952 -0.2915
vn 0.9518 0.0952 -0.2914
vn 0.9461 -0.1914 -0.2615
vn -0.9103 -0.1717 -0.3766
vn -0.9103 -0.1718 -0.3766
vn -0.9441 0.0936 -0.3161
vn -0.3999 0.8679 0.2946
vn -0.3999 0.8680 0.2946
vn -0.3756 -0.0397 0.9259
vn -0.0439 -0.0261 0.9987
vn -0.0910 0.1180 0.9888
vn -0.3392 0.1463 0.9293
vn -0.2368 0.1808 -0.9546
vn -0.2678 -0.0093 -0.9634
vn -0.3179 0.9156 -0.2462
vn 0.3193 0.9071 -0.2742
vn 0.3709 0.9029 0.2174
vn 0.8899 0.3537 -0.2880
vn 0.9126 0.4084 0.0165
vn 0.9126 0.4085 0.0165
vn 0.8793 0.3982 0.2612
vn 0.1090 0.3375 0.9350
vn -0.1069 0.3752 0.9208
vn -0.3392 0.1464 0.9293
vn -0.3278 0.3332 0.8840
vn -0.9090 0.3201 0.2668
vn -0.9374 0.3483 -0.0036
vn -0.9441 0.0936 -0.3162
vn -0.9373 0.3484 -0.0036
vn -0.9063 0.3284 -0.2659
vn -0.2150 0.3309 -0.9189
vn -0.0742 0.3756 -0.9238
vn -0.0634 0.1517 -0.9864
vn -0.2150 0.3308 -0.9189
vn 0.0891 0.1116 -0.9897
vn 0.0867 0.3395 -0.9366
vn 0.7843 0.5678 -0.2501
vn 0.8198 0.5680 0.0724
vn 0.8900 0.3537 -0.2880
vn 0.8006 0.5403 0.2593
vn -0.1057 0.5488 0.8293
vn -0.1069 0.3752 0.9207
vn -0.1057 0.5487 0.8293
vn 0.1336 0.5373 0.8327
vn -0.3279 0.3332 0.8840
vn -0.1056 0.5488 0.8293
vn -0.3481 0.5272 0.7752
vn -0.8427 0.5381 0.0176
vn -0.9374 0.3484 -0.0036
vn -0.9090 0.3201 0.2669
vn -0.8142 0.5106 0.2762
vn -0.9063 0.3284 -0.2660
vn -0.8155 0.5297 -0.2334
vn -0.0615 0.5555 -0.8292
vn -0.1824 0.5433 -0.8195
vn -0.0742 0.3757 -0.9238
vn 0.0917 0.5591 -0.8240
vn -0.7766 -0.4655 -0.4245
vn -0.8330 -0.4815 0.2724
vn -0.3469 -0.4962 0.7959
vn 0.2022 -0.5076 0.8375
vn 0.8431 -0.4747 0.2526
vn 0.8390 -0.5151 -0.1753
vn 0.0512 -0.5195 -0.8529
vn -0.3353 -0.4893 -0.8051
vn -0.3852 -0.8682 -0.3128
vn -0.4178 -0.8982 0.1366
vn -0.1763 -0.9061 0.3847
vn 0.1045 -0.9111 0.3986
vn 0.4173 -0.8982 0.1379
vn 0.3978 -0.9171 -0.0264
vn -0.0473 -0.9137 -0.4036
vn -0.2911 -0.8747 -0.3875
vn -0.0374 -0.9993 -0.0096
vn -0.0374 -0.9993 -0.0095
vt 0.625000 0.192414
vt 0.500000 0.192414
vt 0.500000 0.125000
vt 0.625000 0.125000
vt 0.625000 0.625000
vt 0.500000 0.625000
vt 0.500000 0.557586
vt 0.692414 0.490172
vt 0.807586 0.259828
vt 0.716293 0.226121
vt 0.750000 0.125000
vt 0.875000 0.125000
vt 0.125000 0.125000
vt 0.250000 0.125000
vt 0.283707 0.226121
vt 0.192414 0.259828
vt 0.307586 0.490172
vt 0.375000 0.625000
vt 0.375000 0.125000
vt 0.375000 0.192414
vt 0.687500 0.312500
vt 0.500000 0.375000
vt 0.500000 0.250000
vt 0.625000 0.250000
vt 0.312500 0.312500
vt 0.375000 0.250000
vt 0.500000 0.500000
vt 0.250000 0.375000
vt 0.750000 0.375000
vt 0.276051 0.427103
vt 0.500000 0.526051
vt 0.723949 0.427103
vt 0.776051 0.322897
vt 0.700526 0.273423
vt 0.625000 0.223949
vt 0.500000 0.223949
vt 0.375000 0.223949
vt 0.299474 0.273423
vt 0.223949 0.322897
vt 0.000000 0.000000
vt 1.000000 0.000000
vt 1.000000 1.000000
vt 0.000000 1.000000
s 0
usemtl Material.003
f 1/1/1 2/2/2 3/3/3
f 1/1/1 3/3/3 4/4/4
f 5/5/5 6/6/6 7/7/7
f 5/5/5 7/7/8 8/8/9
f 8/9/10 9/10/11 10/11/12
f 8/9/13 10/11/14 5/12/15
f 11/13/16 12/14/17 13/15/18
f 11/13/19 13/15/18 14/16/20
f 14/17/21 7/7/7 6/6/6
f 14/17/22 6/6/6 11/18/23
f 15/19/24 3/3/3 2/2/2
f 15/19/25 2/2/2 16/20/26
f 17/21/27 18/22/27 19/23/27
f 17/21/28 19/23/28 20/24/28
f 4/4/29 10/11/30 9/10/31
f 4/4/29 9/10/31 1/1/32
f 16/20/33 13/15/18 12/14/17
f 16/20/33 12/14/17 15/19/34
f 21/25/35 22/26/35 19/23/35
f 21/25/35 19/23/35 18/22/35
f 23/27/36 24/28/36 21/25/36
f 23/27/36 21/25/36 18/22/36
f 25/29/37 23/27/37 18/22/37
f 25/29/37 18/22/37 17/21/37
f 26/30/38 27/31/39 7/7/8
f 26/30/38 7/7/7 14/17/22
f 8/8/9 7/7/7 27/31/39
f 8/8/9 27/31/40 28/32/41
f 28/33/42 29/34/43 9/10/31
f 28/33/42 9/10/11 8/9/10
f 1/1/32 9/10/11 29/34/43
f 1/1/44 29/34/43 30/35/45
f 30/35/46 31/36/47 2/2/2
f 30/35/46 2/2/2 1/1/1
f 16/20/48 2/2/2 31/36/47
f 16/20/48 31/36/49 32/37/50
f 32/37/51 33/38/52 13/15/53
f 32/37/54 13/15/18 16/20/33
f 14/16/55 13/15/18 33/38/52
f 14/16/55 33/38/52 26/39/56
f 24/28/57 23/27/58 27/31/39
f 24/28/57 27/31/39 26/30/59
f 28/32/41 27/31/39 23/27/58
f 28/32/41 23/27/58 25/29/60
f 17/21/61 29/34/62 28/33/42
f 17/21/63 28/33/42 25/29/64
f 30/35/65 29/34/62 17/21/63
f 30/35/45 17/21/66 20/24/67
f 19/23/68 31/36/69 30/35/46
f 19/23/68 30/35/70 20/24/71
f 32/37/50 31/36/49 19/23/68
f 32/37/72 19/23/68 22/26/73
f 21/25/74 33/38/52 32/37/54
f 21/25/74 32/37/51 22/26/75
f 26/39/56 33/38/76 21/25/74
f 26/39/56 21/25/74 24/28/77
f 3/40/78 15/41/78 34/42/78
f 3/40/78 34/42/78 35/43/78
f 4/40/79 3/41/79 35/42/79
f 4/40/79 35/42/79 36/43/79
f 10/40/80 4/41/80 36/42/80
f 10/40/80 36/42/80 37/43/80
f 5/40/81 10/41/81 37/42/81
f 5/40/81 37/42/81 38/43/81
f 6/40/82 5/41/82 38/42/82
f 6/40/82 38/42/82 39/43/82
f 11/40/83 6/41/83 39/42/83
f 11/40/83 39/42/83 40/43/83
f 12/40/84 11/41/84 40/42/84
f 12/40/84 40/42/84 41/43/84
f 15/40/85 12/41/85 41/42/85
f 15/40/85 41/42/85 34/43/85
f 35/40/86 34/41/86 42/42/86
f 35/40/86 42/42/86 43/43/86
f 36/40/87 35/41/87 43/42/87
f 36/40/87 43/42/87 44/43/87
f 37/40/88 36/41/88 44/42/88
f 37/40/88 44/42/88 45/43/88
f 38/40/89 37/41/89 45/42/89
f 38/40/89 45/42/89 46/43/89
f 39/40/90 38/41/90 46/42/90
f 39/40/90 46/42/90 47/43/90
f 40/40/91 39/41/91 47/42/91
f 40/40/91 47/42/91 48/43/91
f 41/40/92 40/41/92 48/42/92
f 41/40/92 48/42/92 49/43/92
f 34/40/93 41/41/93 49/42/93
f 34/40/93 49/42/93 42/43/93
f 43/43/94 42/43/95 49/43/94
f 43/43/94 49/43/94 48/43/94
f 43/43/95 48/43/95 47/43/95
f 43/43/95 47/43/95 46/43/95
f 43/43/95 46/43/95 45/43/95
f 43/43/95 45/43/95 44/43/95
